<svg width="250" height="500" viewBox="0 0 86 154" fill="none" xmlns="http://www.w3.org/2000/svg">
  <rect y="28" width="80" height="76" rx="3" fill="#EEBDBD"/>
  <rect opacity="0.4" x="5.5" y="33.5" width="69" height="54" fill="white" stroke="black"/>
  <path d="M34.2852 56.1348H35.4688V57.0195H34.2852V59H33.1953V57.0195H29.3105V56.3809L33.1309 50.4688H34.2852V56.1348ZM30.541 56.1348H33.1953V51.9512L33.0664 52.1855L30.541 56.1348ZM41.7969 55.3613C41.7969 56.6309 41.5801 57.5742 41.1465 58.1914C40.7129 58.8086 40.0352 59.1172 39.1133 59.1172C38.2031 59.1172 37.5293 58.8164 37.0918 58.2148C36.6543 57.6094 36.4277 56.707 36.4121 55.5078V54.0605C36.4121 52.8066 36.6289 51.875 37.0625 51.2656C37.4961 50.6562 38.1758 50.3516 39.1016 50.3516C40.0195 50.3516 40.6953 50.6465 41.1289 51.2363C41.5625 51.8223 41.7852 52.7285 41.7969 53.9551V55.3613ZM40.7129 53.8789C40.7129 52.9609 40.584 52.293 40.3262 51.875C40.0684 51.4531 39.6602 51.2422 39.1016 51.2422C38.5469 51.2422 38.1426 51.4512 37.8887 51.8691C37.6348 52.2871 37.5039 52.9297 37.4961 53.7969V55.5312C37.4961 56.4531 37.6289 57.1348 37.8945 57.5762C38.1641 58.0137 38.5703 58.2324 39.1133 58.2324C39.6484 58.2324 40.0449 58.0254 40.3027 57.6113C40.5645 57.1973 40.7012 56.5449 40.7129 55.6543V53.8789ZM47.7617 56.1348H48.9453V57.0195H47.7617V59H46.6719V57.0195H42.7871V56.3809L46.6074 50.4688H47.7617V56.1348ZM44.0176 56.1348H46.6719V51.9512L46.543 52.1855L44.0176 56.1348Z" fill="black"/>
  <rect x="3" y="91" width="74" height="11" fill="#C4C4C4"/>
  <circle cx="66.5" cy="96.5" r="2.5" fill="#E6E6E6"/>
  <rect x="9" y="93" width="22" height="7" fill="#DDD8D8"/>
  <line x1="26.7071" y1="14.2929" x2="40.7071" y2="28.2929" stroke="#EEBDBD" strokeWidth="2"/>
  <line x1="39.2927" y1="28.3087" x2="66.2927" y2="1.2931" stroke="#EEBDBD" strokeWidth="2"/>
  <path d="M23.5039 69.1973C22.5391 68.9199 21.8359 68.5801 21.3945 68.1777C20.957 67.7715 20.7383 67.2715 20.7383 66.6777C20.7383 66.0059 21.0059 65.4512 21.541 65.0137C22.0801 64.5723 22.7793 64.3516 23.6387 64.3516C24.2246 64.3516 24.7461 64.4648 25.2031 64.6914C25.6641 64.918 26.0195 65.2305 26.2695 65.6289C26.5234 66.0273 26.6504 66.4629 26.6504 66.9355H25.5195C25.5195 66.4199 25.3555 66.0156 25.0273 65.7227C24.6992 65.4258 24.2363 65.2773 23.6387 65.2773C23.084 65.2773 22.6504 65.4004 22.3379 65.6465C22.0293 65.8887 21.875 66.2266 21.875 66.6602C21.875 67.0078 22.0215 67.3027 22.3145 67.5449C22.6113 67.7832 23.1133 68.002 23.8203 68.2012C24.5312 68.4004 25.0859 68.6211 25.4844 68.8633C25.8867 69.1016 26.1836 69.3809 26.375 69.7012C26.5703 70.0215 26.668 70.3984 26.668 70.832C26.668 71.5234 26.3984 72.0781 25.8594 72.4961C25.3203 72.9102 24.5996 73.1172 23.6973 73.1172C23.1113 73.1172 22.5645 73.0059 22.0566 72.7832C21.5488 72.5566 21.1562 72.248 20.8789 71.8574C20.6055 71.4668 20.4688 71.0234 20.4688 70.5273H21.5996C21.5996 71.043 21.7891 71.4512 22.168 71.752C22.5508 72.0488 23.0605 72.1973 23.6973 72.1973C24.291 72.1973 24.7461 72.0762 25.0625 71.834C25.3789 71.5918 25.5371 71.2617 25.5371 70.8438C25.5371 70.4258 25.3906 70.1035 25.0977 69.877C24.8047 69.6465 24.2734 69.4199 23.5039 69.1973ZM27.6582 69.7715C27.6582 69.1504 27.7793 68.5918 28.0215 68.0957C28.2676 67.5996 28.6074 67.2168 29.041 66.9473C29.4785 66.6777 29.9766 66.543 30.5352 66.543C31.3984 66.543 32.0957 66.8418 32.627 67.4395C33.1621 68.0371 33.4297 68.832 33.4297 69.8242V69.9004C33.4297 70.5176 33.3105 71.0723 33.0723 71.5645C32.8379 72.0527 32.5 72.4336 32.0586 72.707C31.6211 72.9805 31.1172 73.1172 30.5469 73.1172C29.6875 73.1172 28.9902 72.8184 28.4551 72.2207C27.9238 71.623 27.6582 70.832 27.6582 69.8477V69.7715ZM28.748 69.9004C28.748 70.6035 28.9102 71.168 29.2344 71.5938C29.5625 72.0195 30 72.2324 30.5469 72.2324C31.0977 72.2324 31.5352 72.0176 31.8594 71.5879C32.1836 71.1543 32.3457 70.5488 32.3457 69.7715C32.3457 69.0762 32.1797 68.5137 31.8477 68.084C31.5195 67.6504 31.082 67.4336 30.5352 67.4336C30 67.4336 29.5684 67.6465 29.2402 68.0723C28.9121 68.498 28.748 69.1074 28.748 69.9004ZM37.8535 67.6328C37.6895 67.6055 37.5117 67.5918 37.3203 67.5918C36.6094 67.5918 36.127 67.8945 35.873 68.5V73H34.7891V66.6602H35.8438L35.8613 67.3926C36.2168 66.8262 36.7207 66.543 37.373 66.543C37.584 66.543 37.7441 66.5703 37.8535 66.625V67.6328ZM41.9199 67.6328C41.7559 67.6055 41.5781 67.5918 41.3867 67.5918C40.6758 67.5918 40.1934 67.8945 39.9395 68.5V73H38.8555V66.6602H39.9102L39.9277 67.3926C40.2832 66.8262 40.7871 66.543 41.4395 66.543C41.6504 66.543 41.8105 66.5703 41.9199 66.625V67.6328ZM45.1016 71.4121L46.5781 66.6602H47.7383L45.1895 73.9785C44.7949 75.0332 44.168 75.5605 43.3086 75.5605L43.1035 75.543L42.6992 75.4668V74.5879L42.9922 74.6113C43.3594 74.6113 43.6445 74.5371 43.8477 74.3887C44.0547 74.2402 44.2246 73.9688 44.3574 73.5742L44.5977 72.9297L42.3359 66.6602H43.5195L45.1016 71.4121ZM51.6523 72.4316C51.6523 72.2441 51.707 72.0879 51.8164 71.9629C51.9297 71.8379 52.0977 71.7754 52.3203 71.7754C52.543 71.7754 52.7109 71.8379 52.8242 71.9629C52.9414 72.0879 53 72.2441 53 72.4316C53 72.6113 52.9414 72.7617 52.8242 72.8828C52.7109 73.0039 52.543 73.0645 52.3203 73.0645C52.0977 73.0645 51.9297 73.0039 51.8164 72.8828C51.707 72.7617 51.6523 72.6113 51.6523 72.4316ZM51.6582 67.2578C51.6582 67.0703 51.7129 66.9141 51.8223 66.7891C51.9355 66.6641 52.1035 66.6016 52.3262 66.6016C52.5488 66.6016 52.7168 66.6641 52.8301 66.7891C52.9473 66.9141 53.0059 67.0703 53.0059 67.2578C53.0059 67.4375 52.9473 67.5879 52.8301 67.709C52.7168 67.8301 52.5488 67.8906 52.3262 67.8906C52.1035 67.8906 51.9355 67.8301 51.8223 67.709C51.7129 67.5879 51.6582 67.4375 51.6582 67.2578ZM54.8105 73.7324H53.8789L57.4414 64.4688H58.3672L54.8105 73.7324Z" fill="black"/>
  <path d="M14.541 123H13.4102L9.11523 116.426V123H7.98438V114.469H9.11523L13.4219 121.072V114.469H14.541V123ZM20.2832 123C20.2207 122.875 20.1699 122.652 20.1309 122.332C19.627 122.855 19.0254 123.117 18.3262 123.117C17.7012 123.117 17.1875 122.941 16.7852 122.59C16.3867 122.234 16.1875 121.785 16.1875 121.242C16.1875 120.582 16.4375 120.07 16.9375 119.707C17.4414 119.34 18.1484 119.156 19.0586 119.156H20.1133V118.658C20.1133 118.279 20 117.979 19.7734 117.756C19.5469 117.529 19.2129 117.416 18.7715 117.416C18.3848 117.416 18.0605 117.514 17.7988 117.709C17.5371 117.904 17.4062 118.141 17.4062 118.418H16.3164C16.3164 118.102 16.4277 117.797 16.6504 117.504C16.877 117.207 17.1816 116.973 17.5645 116.801C17.9512 116.629 18.375 116.543 18.8359 116.543C19.5664 116.543 20.1387 116.727 20.5527 117.094C20.9668 117.457 21.1816 117.959 21.1973 118.6V121.518C21.1973 122.1 21.2715 122.562 21.4199 122.906V123H20.2832ZM18.4844 122.174C18.8242 122.174 19.1465 122.086 19.4512 121.91C19.7559 121.734 19.9766 121.506 20.1133 121.225V119.924H19.2637C17.9355 119.924 17.2715 120.312 17.2715 121.09C17.2715 121.43 17.3848 121.695 17.6113 121.887C17.8379 122.078 18.1289 122.174 18.4844 122.174ZM21.0332 114.188C21.0332 114.609 20.9121 114.951 20.6699 115.213C20.4316 115.475 20.1328 115.605 19.7734 115.605C19.6133 115.605 19.4746 115.586 19.3574 115.547C19.2402 115.508 19.0859 115.428 18.8945 115.307C18.707 115.186 18.5703 115.113 18.4844 115.09C18.4023 115.062 18.3066 115.049 18.1973 115.049C18.0371 115.049 17.9004 115.111 17.7871 115.236C17.6738 115.357 17.6172 115.514 17.6172 115.705L16.8906 115.664C16.8906 115.246 17.0078 114.9 17.2422 114.627C17.4805 114.354 17.7812 114.217 18.1445 114.217C18.2812 114.217 18.4043 114.236 18.5137 114.275C18.623 114.314 18.7715 114.391 18.959 114.504C19.1465 114.617 19.2891 114.691 19.3867 114.727C19.4883 114.762 19.5996 114.779 19.7207 114.779C19.8887 114.779 20.0273 114.713 20.1367 114.58C20.25 114.447 20.3066 114.293 20.3066 114.117L21.0332 114.188ZM22.6094 119.771C22.6094 119.15 22.7305 118.592 22.9727 118.096C23.2188 117.6 23.5586 117.217 23.9922 116.947C24.4297 116.678 24.9277 116.543 25.4863 116.543C26.3496 116.543 27.0469 116.842 27.5781 117.439C28.1133 118.037 28.3809 118.832 28.3809 119.824V119.9C28.3809 120.518 28.2617 121.072 28.0234 121.564C27.7891 122.053 27.4512 122.434 27.0098 122.707C26.5723 122.98 26.0684 123.117 25.498 123.117C24.6387 123.117 23.9414 122.818 23.4062 122.221C22.875 121.623 22.6094 120.832 22.6094 119.848V119.771ZM23.6992 119.9C23.6992 120.604 23.8613 121.168 24.1855 121.594C24.5137 122.02 24.9512 122.232 25.498 122.232C26.0488 122.232 26.4863 122.018 26.8105 121.588C27.1348 121.154 27.2969 120.549 27.2969 119.771C27.2969 119.076 27.1309 118.514 26.7988 118.084C26.4707 117.65 26.0332 117.434 25.4863 117.434C24.9512 117.434 24.5195 117.646 24.1914 118.072C23.8633 118.498 23.6992 119.107 23.6992 119.9ZM39.1621 120.293C39.0566 121.195 38.7227 121.893 38.1602 122.385C37.6016 122.873 36.8574 123.117 35.9277 123.117C34.9199 123.117 34.1113 122.756 33.502 122.033C32.8965 121.311 32.5938 120.344 32.5938 119.133V118.312C32.5938 117.52 32.7344 116.822 33.0156 116.221C33.3008 115.619 33.7031 115.158 34.2227 114.838C34.7422 114.514 35.3438 114.352 36.0273 114.352C36.9336 114.352 37.6602 114.605 38.207 115.113C38.7539 115.617 39.0723 116.316 39.1621 117.211H38.0312C37.9336 116.531 37.7207 116.039 37.3926 115.734C37.0684 115.43 36.6133 115.277 36.0273 115.277C35.3086 115.277 34.7441 115.543 34.334 116.074C33.9277 116.605 33.7246 117.361 33.7246 118.342V119.168C33.7246 120.094 33.918 120.83 34.3047 121.377C34.6914 121.924 35.2324 122.197 35.9277 122.197C36.5527 122.197 37.0312 122.057 37.3633 121.775C37.6992 121.49 37.9219 120.996 38.0312 120.293H39.1621ZM40.2461 119.771C40.2461 119.15 40.3672 118.592 40.6094 118.096C40.8555 117.6 41.1953 117.217 41.6289 116.947C42.0664 116.678 42.5645 116.543 43.123 116.543C43.9863 116.543 44.6836 116.842 45.2148 117.439C45.75 118.037 46.0176 118.832 46.0176 119.824V119.9C46.0176 120.518 45.8984 121.072 45.6602 121.564C45.4258 122.053 45.0879 122.434 44.6465 122.707C44.209 122.98 43.7051 123.117 43.1348 123.117C42.2754 123.117 41.5781 122.818 41.043 122.221C40.5117 121.623 40.2461 120.832 40.2461 119.848V119.771ZM41.3359 119.9C41.3359 120.604 41.498 121.168 41.8223 121.594C42.1504 122.02 42.5879 122.232 43.1348 122.232C43.6855 122.232 44.123 122.018 44.4473 121.588C44.7715 121.154 44.9336 120.549 44.9336 119.771C44.9336 119.076 44.7676 118.514 44.4355 118.084C44.1074 117.65 43.6699 117.434 43.123 117.434C42.5879 117.434 42.1562 117.646 41.8281 118.072C41.5 118.498 41.3359 119.107 41.3359 119.9ZM48.4023 116.66L48.4375 117.457C48.9219 116.848 49.5547 116.543 50.3359 116.543C51.6758 116.543 52.3516 117.299 52.3633 118.811V123H51.2793V118.805C51.2754 118.348 51.1699 118.01 50.9629 117.791C50.7598 117.572 50.4414 117.463 50.0078 117.463C49.6562 117.463 49.3477 117.557 49.082 117.744C48.8164 117.932 48.6094 118.178 48.4609 118.482V123H47.377V116.66H48.4023ZM57.6895 121.318C57.6895 121.025 57.5781 120.799 57.3555 120.639C57.1367 120.475 56.752 120.334 56.2012 120.217C55.6543 120.1 55.2188 119.959 54.8945 119.795C54.5742 119.631 54.3359 119.436 54.1797 119.209C54.0273 118.982 53.9512 118.713 53.9512 118.4C53.9512 117.881 54.1699 117.441 54.6074 117.082C55.0488 116.723 55.6113 116.543 56.2949 116.543C57.0137 116.543 57.5957 116.729 58.041 117.1C58.4902 117.471 58.7148 117.945 58.7148 118.523H57.625C57.625 118.227 57.498 117.971 57.2441 117.756C56.9941 117.541 56.6777 117.434 56.2949 117.434C55.9004 117.434 55.5918 117.52 55.3691 117.691C55.1465 117.863 55.0352 118.088 55.0352 118.365C55.0352 118.627 55.1387 118.824 55.3457 118.957C55.5527 119.09 55.9258 119.217 56.4648 119.338C57.0078 119.459 57.4473 119.604 57.7832 119.771C58.1191 119.939 58.3672 120.143 58.5273 120.381C58.6914 120.615 58.7734 120.902 58.7734 121.242C58.7734 121.809 58.5469 122.264 58.0938 122.607C57.6406 122.947 57.0527 123.117 56.3301 123.117C55.8223 123.117 55.373 123.027 54.9824 122.848C54.5918 122.668 54.2852 122.418 54.0625 122.098C53.8438 121.773 53.7344 121.424 53.7344 121.049H54.8184C54.8379 121.412 54.9824 121.701 55.252 121.916C55.5254 122.127 55.8848 122.232 56.3301 122.232C56.7402 122.232 57.0684 122.15 57.3145 121.986C57.5645 121.818 57.6895 121.596 57.6895 121.318ZM62.8164 123.117C61.957 123.117 61.2578 122.836 60.7188 122.273C60.1797 121.707 59.9102 120.951 59.9102 120.006V119.807C59.9102 119.178 60.0293 118.617 60.2676 118.125C60.5098 117.629 60.8457 117.242 61.2754 116.965C61.709 116.684 62.1777 116.543 62.6816 116.543C63.5059 116.543 64.1465 116.814 64.6035 117.357C65.0605 117.9 65.2891 118.678 65.2891 119.689V120.141H60.9941C61.0098 120.766 61.1914 121.271 61.5391 121.658C61.8906 122.041 62.3359 122.232 62.875 122.232C63.2578 122.232 63.582 122.154 63.8477 121.998C64.1133 121.842 64.3457 121.635 64.5449 121.377L65.207 121.893C64.6758 122.709 63.8789 123.117 62.8164 123.117ZM62.6816 117.434C62.2441 117.434 61.877 117.594 61.5801 117.914C61.2832 118.23 61.0996 118.676 61.0293 119.25H64.2051V119.168C64.1738 118.617 64.0254 118.191 63.7598 117.891C63.4941 117.586 63.1348 117.434 62.6816 117.434ZM66.291 119.777C66.291 118.789 66.5195 118.004 66.9766 117.422C67.4336 116.836 68.0391 116.543 68.793 116.543C69.5664 116.543 70.1699 116.816 70.6035 117.363L70.6562 116.66H71.6465V122.848C71.6465 123.668 71.4023 124.314 70.9141 124.787C70.4297 125.26 69.7773 125.496 68.957 125.496C68.5 125.496 68.0527 125.398 67.6152 125.203C67.1777 125.008 66.8438 124.74 66.6133 124.4L67.1758 123.75C67.6406 124.324 68.209 124.611 68.8809 124.611C69.4082 124.611 69.8184 124.463 70.1113 124.166C70.4082 123.869 70.5566 123.451 70.5566 122.912V122.367C70.123 122.867 69.5312 123.117 68.7812 123.117C68.0391 123.117 67.4375 122.818 66.9766 122.221C66.5195 121.623 66.291 120.809 66.291 119.777ZM67.3809 119.9C67.3809 120.615 67.5273 121.178 67.8203 121.588C68.1133 121.994 68.5234 122.197 69.0508 122.197C69.7344 122.197 70.2363 121.887 70.5566 121.266V118.371C70.2246 117.766 69.7266 117.463 69.0625 117.463C68.5352 117.463 68.123 117.668 67.8262 118.078C67.5293 118.488 67.3809 119.096 67.3809 119.9ZM77.2012 122.373C76.7793 122.869 76.1602 123.117 75.3438 123.117C74.668 123.117 74.1523 122.922 73.7969 122.531C73.4453 122.137 73.2676 121.555 73.2637 120.785V116.66H74.3477V120.756C74.3477 121.717 74.7383 122.197 75.5195 122.197C76.3477 122.197 76.8984 121.889 77.1719 121.271V116.66H78.2559V123H77.2246L77.2012 122.373ZM81.0859 123H80.002V116.66H81.0859V123ZM79.9141 114.979C79.9141 114.803 79.9668 114.654 80.0723 114.533C80.1816 114.412 80.3418 114.352 80.5527 114.352C80.7637 114.352 80.9238 114.412 81.0332 114.533C81.1426 114.654 81.1973 114.803 81.1973 114.979C81.1973 115.154 81.1426 115.301 81.0332 115.418C80.9238 115.535 80.7637 115.594 80.5527 115.594C80.3418 115.594 80.1816 115.535 80.0723 115.418C79.9668 115.301 79.9141 115.154 79.9141 114.979ZM20.1895 137C20.127 136.875 20.0762 136.652 20.0371 136.332C19.5332 136.855 18.9316 137.117 18.2324 137.117C17.6074 137.117 17.0938 136.941 16.6914 136.59C16.293 136.234 16.0938 135.785 16.0938 135.242C16.0938 134.582 16.3438 134.07 16.8438 133.707C17.3477 133.34 18.0547 133.156 18.9648 133.156H20.0195V132.658C20.0195 132.279 19.9062 131.979 19.6797 131.756C19.4531 131.529 19.1191 131.416 18.6777 131.416C18.291 131.416 17.9668 131.514 17.7051 131.709C17.4434 131.904 17.3125 132.141 17.3125 132.418H16.2227C16.2227 132.102 16.334 131.797 16.5566 131.504C16.7832 131.207 17.0879 130.973 17.4707 130.801C17.8574 130.629 18.2812 130.543 18.7422 130.543C19.4727 130.543 20.0449 130.727 20.459 131.094C20.873 131.457 21.0879 131.959 21.1035 132.6V135.518C21.1035 136.1 21.1777 136.562 21.3262 136.906V137H20.1895ZM18.3906 136.174C18.7305 136.174 19.0527 136.086 19.3574 135.91C19.6621 135.734 19.8828 135.506 20.0195 135.225V133.924H19.1699C17.8418 133.924 17.1777 134.312 17.1777 135.09C17.1777 135.43 17.291 135.695 17.5176 135.887C17.7441 136.078 18.0352 136.174 18.3906 136.174ZM25.3457 136.232C25.7324 136.232 26.0703 136.115 26.3594 135.881C26.6484 135.646 26.8086 135.354 26.8398 135.002H27.8652C27.8457 135.365 27.7207 135.711 27.4902 136.039C27.2598 136.367 26.9512 136.629 26.5645 136.824C26.1816 137.02 25.7754 137.117 25.3457 137.117C24.4824 137.117 23.7949 136.83 23.2832 136.256C22.7754 135.678 22.5215 134.889 22.5215 133.889V133.707C22.5215 133.09 22.6348 132.541 22.8613 132.061C23.0879 131.58 23.4121 131.207 23.834 130.941C24.2598 130.676 24.7617 130.543 25.3398 130.543C26.0508 130.543 26.6406 130.756 27.1094 131.182C27.582 131.607 27.834 132.16 27.8652 132.84H26.8398C26.8086 132.43 26.6523 132.094 26.3711 131.832C26.0938 131.566 25.75 131.434 25.3398 131.434C24.7891 131.434 24.3613 131.633 24.0566 132.031C23.7559 132.426 23.6055 132.998 23.6055 133.748V133.953C23.6055 134.684 23.7559 135.246 24.0566 135.641C24.3574 136.035 24.7871 136.232 25.3457 136.232ZM30.168 131.428C30.6484 130.838 31.2734 130.543 32.043 130.543C33.3828 130.543 34.0586 131.299 34.0703 132.811V137H32.9863V132.805C32.9824 132.348 32.877 132.01 32.6699 131.791C32.4668 131.572 32.1484 131.463 31.7148 131.463C31.3633 131.463 31.0547 131.557 30.7891 131.744C30.5234 131.932 30.3164 132.178 30.168 132.482V137H29.084V128H30.168V131.428ZM39.6074 137C39.5449 136.875 39.4941 136.652 39.4551 136.332C38.9512 136.855 38.3496 137.117 37.6504 137.117C37.0254 137.117 36.5117 136.941 36.1094 136.59C35.7109 136.234 35.5117 135.785 35.5117 135.242C35.5117 134.582 35.7617 134.07 36.2617 133.707C36.7656 133.34 37.4727 133.156 38.3828 133.156H39.4375V132.658C39.4375 132.279 39.3242 131.979 39.0977 131.756C38.8711 131.529 38.5371 131.416 38.0957 131.416C37.709 131.416 37.3848 131.514 37.123 131.709C36.8613 131.904 36.7305 132.141 36.7305 132.418H35.6406C35.6406 132.102 35.752 131.797 35.9746 131.504C36.2012 131.207 36.5059 130.973 36.8887 130.801C37.2754 130.629 37.6992 130.543 38.1602 130.543C38.8906 130.543 39.4629 130.727 39.877 131.094C40.291 131.457 40.5059 131.959 40.5215 132.6V135.518C40.5215 136.1 40.5957 136.562 40.7441 136.906V137H39.6074ZM37.8086 136.174C38.1484 136.174 38.4707 136.086 38.7754 135.91C39.0801 135.734 39.3008 135.506 39.4375 135.225V133.924H38.5879C37.2598 133.924 36.5957 134.312 36.5957 135.09C36.5957 135.43 36.709 135.695 36.9355 135.887C37.1621 136.078 37.4531 136.174 37.8086 136.174ZM45.2852 131.633C45.1211 131.605 44.9434 131.592 44.752 131.592C44.041 131.592 43.5586 131.895 43.3047 132.5V137H42.2207V130.66H43.2754L43.293 131.393C43.6484 130.826 44.1523 130.543 44.8047 130.543C45.0156 130.543 45.1758 130.57 45.2852 130.625V131.633ZM51.8945 137.117C51.0352 137.117 50.3359 136.836 49.7969 136.273C49.2578 135.707 48.9883 134.951 48.9883 134.006V133.807C48.9883 133.178 49.1074 132.617 49.3457 132.125C49.5879 131.629 49.9238 131.242 50.3535 130.965C50.7871 130.684 51.2559 130.543 51.7598 130.543C52.584 130.543 53.2246 130.814 53.6816 131.357C54.1387 131.9 54.3672 132.678 54.3672 133.689V134.141H50.0723C50.0879 134.766 50.2695 135.271 50.6172 135.658C50.9688 136.041 51.4141 136.232 51.9531 136.232C52.3359 136.232 52.6602 136.154 52.9258 135.998C53.1914 135.842 53.4238 135.635 53.623 135.377L54.2852 135.893C53.7539 136.709 52.957 137.117 51.8945 137.117ZM51.7598 131.434C51.3223 131.434 50.9551 131.594 50.6582 131.914C50.3613 132.23 50.1777 132.676 50.1074 133.25H53.2832V133.168C53.252 132.617 53.1035 132.191 52.8379 131.891C52.5723 131.586 52.2129 131.434 51.7598 131.434ZM59.3184 135.318C59.3184 135.025 59.207 134.799 58.9844 134.639C58.7656 134.475 58.3809 134.334 57.8301 134.217C57.2832 134.1 56.8477 133.959 56.5234 133.795C56.2031 133.631 55.9648 133.436 55.8086 133.209C55.6562 132.982 55.5801 132.713 55.5801 132.4C55.5801 131.881 55.7988 131.441 56.2363 131.082C56.6777 130.723 57.2402 130.543 57.9238 130.543C58.6426 130.543 59.2246 130.729 59.6699 131.1C60.1191 131.471 60.3438 131.945 60.3438 132.523H59.2539C59.2539 132.227 59.127 131.971 58.873 131.756C58.623 131.541 58.3066 131.434 57.9238 131.434C57.5293 131.434 57.2207 131.52 56.998 131.691C56.7754 131.863 56.6641 132.088 56.6641 132.365C56.6641 132.627 56.7676 132.824 56.9746 132.957C57.1816 133.09 57.5547 133.217 58.0938 133.338C58.6367 133.459 59.0762 133.604 59.4121 133.771C59.748 133.939 59.9961 134.143 60.1562 134.381C60.3203 134.615 60.4023 134.902 60.4023 135.242C60.4023 135.809 60.1758 136.264 59.7227 136.607C59.2695 136.947 58.6816 137.117 57.959 137.117C57.4512 137.117 57.002 137.027 56.6113 136.848C56.2207 136.668 55.9141 136.418 55.6914 136.098C55.4727 135.773 55.3633 135.424 55.3633 135.049H56.4473C56.4668 135.412 56.6113 135.701 56.8809 135.916C57.1543 136.127 57.5137 136.232 57.959 136.232C58.3691 136.232 58.6973 136.15 58.9434 135.986C59.1934 135.818 59.3184 135.596 59.3184 135.318ZM65.5059 135.318C65.5059 135.025 65.3945 134.799 65.1719 134.639C64.9531 134.475 64.5684 134.334 64.0176 134.217C63.4707 134.1 63.0352 133.959 62.7109 133.795C62.3906 133.631 62.1523 133.436 61.9961 133.209C61.8438 132.982 61.7676 132.713 61.7676 132.4C61.7676 131.881 61.9863 131.441 62.4238 131.082C62.8652 130.723 63.4277 130.543 64.1113 130.543C64.8301 130.543 65.4121 130.729 65.8574 131.1C66.3066 131.471 66.5312 131.945 66.5312 132.523H65.4414C65.4414 132.227 65.3145 131.971 65.0605 131.756C64.8105 131.541 64.4941 131.434 64.1113 131.434C63.7168 131.434 63.4082 131.52 63.1855 131.691C62.9629 131.863 62.8516 132.088 62.8516 132.365C62.8516 132.627 62.9551 132.824 63.1621 132.957C63.3691 133.09 63.7422 133.217 64.2812 133.338C64.8242 133.459 65.2637 133.604 65.5996 133.771C65.9355 133.939 66.1836 134.143 66.3438 134.381C66.5078 134.615 66.5898 134.902 66.5898 135.242C66.5898 135.809 66.3633 136.264 65.9102 136.607C65.457 136.947 64.8691 137.117 64.1465 137.117C63.6387 137.117 63.1895 137.027 62.7988 136.848C62.4082 136.668 62.1016 136.418 61.8789 136.098C61.6602 135.773 61.5508 135.424 61.5508 135.049H62.6348C62.6543 135.412 62.7988 135.701 63.0684 135.916C63.3418 136.127 63.7012 136.232 64.1465 136.232C64.5566 136.232 64.8848 136.15 65.1309 135.986C65.3809 135.818 65.5059 135.596 65.5059 135.318ZM70.6328 137.117C69.7734 137.117 69.0742 136.836 68.5352 136.273C67.9961 135.707 67.7266 134.951 67.7266 134.006V133.807C67.7266 133.178 67.8457 132.617 68.084 132.125C68.3262 131.629 68.6621 131.242 69.0918 130.965C69.5254 130.684 69.9941 130.543 70.498 130.543C71.3223 130.543 71.9629 130.814 72.4199 131.357C72.877 131.9 73.1055 132.678 73.1055 133.689V134.141H68.8105C68.8262 134.766 69.0078 135.271 69.3555 135.658C69.707 136.041 70.1523 136.232 70.6914 136.232C71.0742 136.232 71.3984 136.154 71.6641 135.998C71.9297 135.842 72.1621 135.635 72.3613 135.377L73.0234 135.893C72.4922 136.709 71.6953 137.117 70.6328 137.117ZM70.498 131.434C70.0605 131.434 69.6934 131.594 69.3965 131.914C69.0996 132.23 68.916 132.676 68.8457 133.25H72.0215V133.168C71.9902 132.617 71.8418 132.191 71.5762 131.891C71.3105 131.586 70.9512 131.434 70.498 131.434ZM30.0273 151H28.9434V142H30.0273V151ZM35.6816 150.373C35.2598 150.869 34.6406 151.117 33.8242 151.117C33.1484 151.117 32.6328 150.922 32.2773 150.531C31.9258 150.137 31.748 149.555 31.7441 148.785V144.66H32.8281V148.756C32.8281 149.717 33.2188 150.197 34 150.197C34.8281 150.197 35.3789 149.889 35.6523 149.271V144.66H36.7363V151H35.7051L35.6816 150.373ZM38.1309 147.777C38.1309 146.789 38.3594 146.004 38.8164 145.422C39.2734 144.836 39.8789 144.543 40.6328 144.543C41.4062 144.543 42.0098 144.816 42.4434 145.363L42.4961 144.66H43.4863V150.848C43.4863 151.668 43.2422 152.314 42.7539 152.787C42.2695 153.26 41.6172 153.496 40.7969 153.496C40.3398 153.496 39.8926 153.398 39.4551 153.203C39.0176 153.008 38.6836 152.74 38.4531 152.4L39.0156 151.75C39.4805 152.324 40.0488 152.611 40.7207 152.611C41.248 152.611 41.6582 152.463 41.9512 152.166C42.248 151.869 42.3965 151.451 42.3965 150.912V150.367C41.9629 150.867 41.3711 151.117 40.6211 151.117C39.8789 151.117 39.2773 150.818 38.8164 150.221C38.3594 149.623 38.1309 148.809 38.1309 147.777ZM39.2207 147.9C39.2207 148.615 39.3672 149.178 39.6602 149.588C39.9531 149.994 40.3633 150.197 40.8906 150.197C41.5742 150.197 42.0762 149.887 42.3965 149.266V146.371C42.0645 145.766 41.5664 145.463 40.9023 145.463C40.375 145.463 39.9629 145.668 39.666 146.078C39.3691 146.488 39.2207 147.096 39.2207 147.9ZM49.041 151C48.9785 150.875 48.9277 150.652 48.8887 150.332C48.3848 150.855 47.7832 151.117 47.084 151.117C46.459 151.117 45.9453 150.941 45.543 150.59C45.1445 150.234 44.9453 149.785 44.9453 149.242C44.9453 148.582 45.1953 148.07 45.6953 147.707C46.1992 147.34 46.9062 147.156 47.8164 147.156H48.8711V146.658C48.8711 146.279 48.7578 145.979 48.5312 145.756C48.3047 145.529 47.9707 145.416 47.5293 145.416C47.1426 145.416 46.8184 145.514 46.5566 145.709C46.2949 145.904 46.1641 146.141 46.1641 146.418H45.0742C45.0742 146.102 45.1855 145.797 45.4082 145.504C45.6348 145.207 45.9395 144.973 46.3223 144.801C46.709 144.629 47.1328 144.543 47.5938 144.543C48.3242 144.543 48.8965 144.727 49.3105 145.094C49.7246 145.457 49.9395 145.959 49.9551 146.6V149.518C49.9551 150.1 50.0293 150.562 50.1777 150.906V151H49.041ZM47.2422 150.174C47.582 150.174 47.9043 150.086 48.209 149.91C48.5137 149.734 48.7344 149.506 48.8711 149.225V147.924H48.0215C46.6934 147.924 46.0293 148.312 46.0293 149.09C46.0293 149.43 46.1426 149.695 46.3691 149.887C46.5957 150.078 46.8867 150.174 47.2422 150.174ZM54.7188 145.633C54.5547 145.605 54.377 145.592 54.1855 145.592C53.4746 145.592 52.9922 145.895 52.7383 146.5V151H51.6543V144.66H52.709L52.7266 145.393C53.082 144.826 53.5859 144.543 54.2383 144.543C54.4492 144.543 54.6094 144.57 54.7188 144.625V145.633ZM59.9102 148.592H58.9316L58.8555 142.469H59.9922L59.9102 148.592ZM58.8145 150.455C58.8145 150.279 58.8672 150.133 58.9727 150.016C59.082 149.895 59.2422 149.834 59.4531 149.834C59.6641 149.834 59.8242 149.895 59.9336 150.016C60.043 150.133 60.0977 150.279 60.0977 150.455C60.0977 150.631 60.043 150.777 59.9336 150.895C59.8242 151.008 59.6641 151.064 59.4531 151.064C59.2422 151.064 59.082 151.008 58.9727 150.895C58.8672 150.777 58.8145 150.631 58.8145 150.455Z" fill="black"/>
</svg>
